# xmcd
#
# Track frame offsets:
#	150
#	11625
#	20076
#	32743
#	43887
#	57116
#	68807
#	79792
#	92709
#	109184
#	122067
#	133895
#	145498
#	156890
#	168978
#	181258
#	193194
#	203023
#	213782
#	227101
#
# Disc length: 3203
#
# Revision: 1
# Processed by: cddbd v1.5.1PL0 Copyright (c) Steve Scherf et al.
# Submitted via: ExactAudioCopy v0.90b4
# Normalized: r0:DSETVAR1
#
DISCID=1e0c8114
DTITLE=Various Artist - Die schönsten Volkslieder (NDR1)
DYEAR=1900
DGENRE=Folklore
TTITLE0=Stefanie and Eberhard Hertel - Wer recht in Freuden Wandern will
TTITLE1=Ensemble - Alle Vöglein sind schon da
TTITLE2=Mara Kayser - Die Gedanken sind frei
TTITLE3=Die Westfälischen Nachtigallen - Der Mai ist gekommen
TTITLE4=Ronny - De Hamburger Veermaster
TTITLE5=Hamburger Alsterspatzen - Eine Seefahrt die ist lustig
TTITLE6=Roy Black and Die Fischerchöre - Mein Vater war ein Wandersmann
TTITLE7=Silke Fischer - Im schönsten Wiesengrunde
TTITLE8=Fischer-Chöre - Jagdlieder-Potpourrie
TTITLE9=Mara Kayser - Wem Gott will rechte Gunst erweisen
TTITLE10=Medium Terzett - Auf der Lüneburger Heide
TTITLE11=Margitta and Ihre Töchter - Es waren zwei Königskinder
TTITLE12=Wolfgang Edenharder - Gold und Silber lieb' ich sehr
TTITLE13=Die Flippers - Ännchen Von Tharau
TTITLE14=Walter Scheel - Hoch auf dem gelben Wagen
TTITLE15=Tölzer Knabenchor - Das Wandern ist des Müllers Lust
TTITLE16=Ronny - Das Leben bringt gross Freud
TTITLE17=Schaumburger Märchensänger - Nun Ade,Du mein lieb Heimatland
TTITLE18=Sibylle - Am Brunnen vor dem Tore
TTITLE19=Sweet People - Das Lied mit dem Vogelgezwitscher (Et lex olseaux chantalent)
EXTD=
EXTT0=
EXTT1=
EXTT2=
EXTT3=
EXTT4=
EXTT5=
EXTT6=
EXTT7=
EXTT8=
EXTT9=
EXTT10=
EXTT11=
EXTT12=
EXTT13=
EXTT14=
EXTT15=
EXTT16=
EXTT17=
EXTT18=
EXTT19=
PLAYORDER=
